<svg xmlns="http://www.w3.org/2000/svg" viewBox="0 0 154 154"><defs><style>.cls-1{fill:#394f5a;}.cls-2{fill:#6ca789;}.cls-3{fill:#d9dbdb;}.cls-4{fill:#adcf78;}.cls-5{fill:#9dc65e;}.cls-6{fill:#fff;}.cls-7{fill:#28404c;}.cls-8{fill:#bcd3c7;}.cls-9{fill:#3b8962;}</style></defs><title>icono4_1</title><g id="Capa_2" data-name="Capa 2"><g id="Capa_8" data-name="Capa 8"><path class="cls-1" d="M83.74,22.46c0,24.7-10.59,42.35-23.74,42.35S36.57,47.48,36.57,22.46C36.57,1.6,47.16,0,60.32,0S83.74,1.93,83.74,22.46Z"/><path class="cls-2" d="M44.6,50.05,44.27,63.2S41.39,77,45.88,85.66c15.72-3.21,33-5.13,27.91-22.46V50.05Z"/><polygon class="cls-3" points="75.4 130.9 89.83 82.13 53.58 82.13 36.58 77.64 37.54 130.9 75.4 130.9"/><polygon class="cls-4" points="68.34 130.9 63.52 94.97 54.86 94.97 50.05 130.9 68.34 130.9"/><polygon class="cls-5" points="63.52 94.97 67.7 90.8 59.35 82.13 50.69 90.8 54.86 94.97 63.52 94.97"/><path class="cls-6" d="M44.6,63.2s-1.29,4.18,0,6.74S59.35,82.13,59.35,82.13L46.84,95,38.5,78.28,41.07,69A8.76,8.76,0,0,1,43,65.13,8.54,8.54,0,0,1,44.6,63.2Z"/><path class="cls-7" d="M45.56,130.9,37.54,93,36.9,75.4,12.19,86.63A17.38,17.38,0,0,0,1.93,101.38L0,130.9Z"/><path class="cls-1" d="M37.86,130.9H49.41c-2.25-13.47-5.14-29.52-6.42-35-2.56-10.27-1.6-27.27-1.6-27.27-1.29.64-3.21,4.49-3.21,4.49a37.13,37.13,0,0,0-5.45,9c-1.93,4.49-4.5,10.59-4.5,10.59L35,92.4l-8.66,7.7Z"/><path class="cls-6" d="M73.79,63.2s1.28,4.18,0,6.74S59,82.13,59,82.13L71.55,95l8-16.37L77,69.3a8.76,8.76,0,0,0-1.92-3.85A3.29,3.29,0,0,0,73.79,63.2Z"/><path class="cls-7" d="M118.39,130.9l-1.93-29.52A17.38,17.38,0,0,0,106.2,86.63L81.81,75.72,80.85,93l-8,37.86Z"/><path class="cls-1" d="M69,130.9H80.53L92.4,100.1l-8.66-7.7,6.74.32S87.91,87,86,82.13a31.89,31.89,0,0,0-5.45-9s-1.93-3.85-3.21-4.49c0,0,1,17.32-1.6,27.27C74.11,101.38,71.23,117.42,69,130.9Z"/><path class="cls-8" d="M81.17,37.22c-1.6-5.46-.64-10.59-4.81-15.4L76,21.5c-2.57-3.21-7.38-3.21-10.59-.32-3.53,3.2-8.66,5.13-14.76,5.13a26.15,26.15,0,0,1-9-1.61,73.78,73.78,0,0,0-2.25,10.91,31.36,31.36,0,0,0-.64,7.7c0,15.72,9.3,28.56,20.53,28.56S79.89,59,79.89,43.31V42C81.17,41.39,81.49,39.46,81.17,37.22Z"/><ellipse class="cls-8" cx="39.19" cy="43.92" rx="3.53" ry="8.02" transform="translate(-5.63 5.76) rotate(-7.85)"/><ellipse class="cls-8" cx="81.48" cy="43.97" rx="8.02" ry="3.53" transform="translate(26.8 118.68) rotate(-82.15)"/><path class="cls-6" d="M154,69.94v77.32a6.78,6.78,0,0,1-6.74,6.74H93a6.78,6.78,0,0,1-6.74-6.74V69.94A6.78,6.78,0,0,1,93,63.2h54.22A6.78,6.78,0,0,1,154,69.94Z"/><path class="cls-9" d="M119,75.4,115.5,76c-.32-1.61-1-2.57-2.57-2.57a2.91,2.91,0,0,0-2.24,1c-.64.64-1,1.93-1,3.85a7.27,7.27,0,0,0,1,4.17,2.41,2.41,0,0,0,2.24,1.29,2.45,2.45,0,0,0,1.61-.64,7.09,7.09,0,0,0,1-2.57l3.53.64c-.64,3.85-2.89,6.1-6.1,6.1a5.29,5.29,0,0,1-4.81-2.57,11.43,11.43,0,0,1-1.6-6.1,9.58,9.58,0,0,1,1.92-6.41,5.77,5.77,0,0,1,4.81-2.25,5.08,5.08,0,0,1,3.85,1.29A16.63,16.63,0,0,1,119,75.4Z"/><path class="cls-9" d="M125.45,87,120,70.58h3.85l2.57,8.34.64,2.89.64-2.89,2.57-8.34h3.53L128.33,87Z"/><rect class="cls-3" x="93.04" y="130.26" width="54.22" height="5.13"/><rect class="cls-3" x="93.04" y="142.13" width="26.95" height="5.13"/><rect class="cls-3" x="93.04" y="118.07" width="54.22" height="5.13"/><rect class="cls-3" x="93.04" y="106.2" width="54.22" height="5.13"/><rect class="cls-3" x="93.04" y="94" width="54.22" height="5.13"/></g></g></svg>