<svg xmlns="http://www.w3.org/2000/svg" viewBox="0 0 111.85 135.16"><defs><style>.cls-1{fill:#9dc65e;}.cls-2{fill:#3b8962;}.cls-3{fill:#fff;}.cls-4{fill:#f8fbf4;}.cls-5{fill:#ecf4e0;}.cls-6{fill:#e6f0d5;}.cls-7{fill:#dceac5;}.cls-8{fill:#dfeaef;}</style></defs><title>icono3_1</title><g id="Capa_2" data-name="Capa 2"><g id="Capa_8" data-name="Capa 8"><path class="cls-1" d="M107.66,135.16H26.56A4.19,4.19,0,0,1,22.37,131V9.3a4.19,4.19,0,0,1,4.19-4.19h81.1a4.19,4.19,0,0,1,4.19,4.19V131A4.19,4.19,0,0,1,107.66,135.16Z"/><path class="cls-2" d="M107.67,5.11H106.4V125.53a4.18,4.18,0,0,1-4.18,4.18H22.37V131a4.18,4.18,0,0,0,4.18,4.18h81.12a4.18,4.18,0,0,0,4.18-4.18V9.29a4.18,4.18,0,0,0-4.18-4.18Z"/><path class="cls-3" d="M100.09,115.23h-66a1.33,1.33,0,0,1-1.32-1.32V21.14a1.32,1.32,0,0,1,1.32-1.32h66a1.32,1.32,0,0,1,1.32,1.32v92.77A1.33,1.33,0,0,1,100.09,115.23Z"/><path class="cls-4" d="M100.1,19.82H96.5V109a1.32,1.32,0,0,1-1.31,1.32H32.81v3.59a1.32,1.32,0,0,0,1.31,1.32h66a1.32,1.32,0,0,0,1.31-1.32V21.14A1.32,1.32,0,0,0,100.1,19.82Z"/><path class="cls-5" d="M79.52,12.71a12.41,12.41,0,1,1-24.82,0,12.41,12.41,0,1,1,24.82,0Z"/><path class="cls-6" d="M67.11,0a11.6,11.6,0,0,0-3,.38A12.8,12.8,0,0,1,73.6,12.71a12.42,12.42,0,0,1-9.45,12.06,12.56,12.56,0,0,0,3,.36A12.41,12.41,0,0,0,79.52,12.71,12.67,12.67,0,0,0,67.11,0Z"/><path class="cls-6" d="M44.6,28.1l1.88,1.46a1.23,1.23,0,0,0,1.48,0l1.84-1.43a1.19,1.19,0,0,1,1.47,0l1.84,1.43a1.23,1.23,0,0,0,1.48,0l1.84-1.43a1.19,1.19,0,0,1,1.47,0l1.84,1.43a1.22,1.22,0,0,0,1.47,0l1.85-1.43a1.19,1.19,0,0,1,1.47,0l1.84,1.43a1.23,1.23,0,0,0,1.48,0l1.84-1.43a1.19,1.19,0,0,1,1.47,0L73,29.56a1.23,1.23,0,0,0,1.48,0l1.83-1.43a1.2,1.2,0,0,1,1.48,0l1.84,1.43a1.22,1.22,0,0,0,1.47,0L83,28.13a1.19,1.19,0,0,1,1.47,0l1.84,1.43a1.23,1.23,0,0,0,1.48,0l1.87-1.46a1.79,1.79,0,0,0,.71-1.43V17.76A2.35,2.35,0,0,0,88,15.42H46.25a2.35,2.35,0,0,0-2.35,2.34v8.91a1.81,1.81,0,0,0,.7,1.43Z"/><path class="cls-7" d="M88,15.42H80.22a3,3,0,0,1,3,3V28a1.22,1.22,0,0,1,1.22.15l1.84,1.43a1.23,1.23,0,0,0,1.48,0l1.87-1.46a1.79,1.79,0,0,0,.71-1.43V17.76A2.35,2.35,0,0,0,88,15.42Z"/><path class="cls-1" d="M89.72,56H76.93a2,2,0,1,1,0-4H89.72a2,2,0,1,1,0,4Z"/><path class="cls-1" d="M89.72,48.05H69.32a2,2,0,1,1,0-3.95h20.4a2,2,0,1,1,0,3.95Z"/><circle class="cls-4" cx="36.91" cy="82.71" r="34.93"/><path class="cls-8" d="M55.82,53.35A34.93,34.93,0,0,1,7.54,101.63,34.93,34.93,0,1,0,55.82,53.35Z"/><path class="cls-2" d="M36.91,119.62a36.91,36.91,0,1,1,36.9-36.91,37,37,0,0,1-36.9,36.91Zm0-69.86a33,33,0,1,0,33,32.95A33,33,0,0,0,36.91,49.76Z"/><path class="cls-1" d="M21.59,99.44a2,2,0,0,1-1.43-.61A2,2,0,0,1,20.21,96L34.93,81.87V66a2,2,0,1,1,4,0v16.7a2,2,0,0,1-.6,1.43L23,98.89a2,2,0,0,1-1.37.55Z"/><circle class="cls-2" cx="36.91" cy="82.71" r="5.35"/><path class="cls-1" d="M39,77.8a5.35,5.35,0,0,1-7,7,5.35,5.35,0,1,0,7-7Z"/><circle class="cls-1" cx="36.86" cy="108.58" r="2.09"/><circle class="cls-1" cx="36.86" cy="56.59" r="2.09"/><circle class="cls-1" cx="10.86" cy="82.58" r="2.09"/><circle class="cls-1" cx="62.85" cy="82.58" r="2.09"/><circle class="cls-1" cx="23.54" cy="104.9" r="2.09"/><circle class="cls-1" cx="50.18" cy="60.26" r="2.09"/><circle class="cls-1" cx="14.54" cy="69.26" r="2.09"/><circle class="cls-1" cx="59.18" cy="95.9" r="2.09"/><circle class="cls-1" cx="49.78" cy="105.13" r="2.09"/><circle class="cls-1" cx="23.93" cy="60.03" r="2.09"/><circle class="cls-1" cx="59.41" cy="69.66" r="2.09"/><circle class="cls-1" cx="14.3" cy="95.51" r="2.09"/></g></g></svg>