<svg xmlns="http://www.w3.org/2000/svg" viewBox="0 0 170.63 135.92"><defs><style>.cls-1{fill:#7eb197;}.cls-2{fill:#62a181;}.cls-3{fill:#9dc65e;}.cls-4{fill:#3b8962;}.cls-5{fill:#546f77;}.cls-6{fill:#28404c;}.cls-7{fill:#fff;}</style></defs><title>icono2</title><g id="Capa_2" data-name="Capa 2"><g id="Capa_8" data-name="Capa 8"><path class="cls-1" d="M160.33,117.71H10.3V32.6A10.43,10.43,0,0,1,20.73,22.17H149.9A10.43,10.43,0,0,1,160.33,32.6v85.11Z"/><path class="cls-2" d="M150,22.17h-10.3A10.3,10.3,0,0,1,150,32.47v82.85h10.3V32.47A10.3,10.3,0,0,0,150,22.17Z"/><path class="cls-3" d="M20.6,115.32V35.9A3.43,3.43,0,0,1,24,32.47H146.6A3.42,3.42,0,0,1,150,35.9v79.42Z"/><path class="cls-2" d="M160.33,135.92H10.3A10.3,10.3,0,0,1,0,125.62v-7.55a2.75,2.75,0,0,1,2.75-2.75H167.89a2.75,2.75,0,0,1,2.74,2.75v7.55A10.3,10.3,0,0,1,160.33,135.92Z"/><path class="cls-4" d="M167.89,115.32h-7.56a15.45,15.45,0,0,1-15.45,15.45H1.38a10.29,10.29,0,0,0,8.92,5.15h150a10.3,10.3,0,0,0,10.3-10.3v-7.55a2.75,2.75,0,0,0-2.74-2.75Z"/><path class="cls-4" d="M96.88,125.62H73.75a4.45,4.45,0,0,1-4-2.47l-3.92-7.83h39l-3.92,7.83a4.44,4.44,0,0,1-4,2.47Z"/><path class="cls-5" d="M53.12,73.89h64.4a8.84,8.84,0,0,0,7.67-13.23L93,4.45a8.84,8.84,0,0,0-15.34,0L45.45,60.66a8.84,8.84,0,0,0,7.67,13.23Z"/><path class="cls-6" d="M125.19,60.66,93,4.45a8.85,8.85,0,0,0-13.7-2.09l11.86,20.7A30.51,30.51,0,0,1,64.67,68.74H45.09a8.76,8.76,0,0,0,8,5.15h64.4a8.84,8.84,0,0,0,7.67-13.23Z"/><path class="cls-7" d="M85.32,49.33a2.57,2.57,0,0,1-2.58-2.58v-24a2.58,2.58,0,0,1,5.15,0v24A2.57,2.57,0,0,1,85.32,49.33Z"/><circle class="cls-7" cx="85.32" cy="59" r="2.98"/><path class="cls-7" d="M88.3,59a3.06,3.06,0,0,0-.24-1.17,30.73,30.73,0,0,1-3.9,3.92A3,3,0,0,0,88.3,59Z"/></g></g></svg>