<svg xmlns="http://www.w3.org/2000/svg" viewBox="0 0 144.96 143.97"><defs><style>.cls-1{fill:#f1f7e8;}.cls-2{fill:#5a6262;}.cls-3{fill:#fff;}.cls-4{fill:#accf76;}.cls-5{fill:#9dc65e;}.cls-6{fill:#7aaf94;}.cls-7{fill:#3b8962;}.cls-8{fill:#28404c;}</style></defs><title>icono3</title><g id="Capa_2" data-name="Capa 2"><g id="Capa_8" data-name="Capa 8"><path class="cls-1" d="M133.87,16.13H118.48a2.13,2.13,0,0,0-2.13,2.13v6.82a4.2,4.2,0,0,1-8.4,0V18.26a2.13,2.13,0,0,0-2.13-2.13H30.33a2.13,2.13,0,0,0-2.13,2.13v6.82a4.2,4.2,0,0,1-8.4,0V18.26a2.13,2.13,0,0,0-2.13-2.13H2.13A2.13,2.13,0,0,0,0,18.26V121.08a2.12,2.12,0,0,0,2.13,2.12H73.58a2.12,2.12,0,0,0,1.8-1,2.09,2.09,0,0,0,.12-2,33.82,33.82,0,0,1-3.27-14.59,34.25,34.25,0,0,1,60-22.45,2.13,2.13,0,0,0,3.74-1.4V18.26A2.13,2.13,0,0,0,133.87,16.13Z"/><path class="cls-2" d="M37.17,53.47H23.43A2.13,2.13,0,0,0,21.3,55.6V69.31a2.12,2.12,0,0,0,2.13,2.12H37.17a2.12,2.12,0,0,0,2.13-2.12V55.6A2.13,2.13,0,0,0,37.17,53.47Z"/><path class="cls-2" d="M62.35,53.47H48.61a2.13,2.13,0,0,0-2.13,2.13V69.31a2.12,2.12,0,0,0,2.13,2.12H62.35a2.13,2.13,0,0,0,2.14-2.12V55.6A2.13,2.13,0,0,0,62.35,53.47Z"/><path class="cls-2" d="M87.54,53.47H73.79a2.13,2.13,0,0,0-2.13,2.13V69.31a2.13,2.13,0,0,0,2.13,2.12H87.54a2.12,2.12,0,0,0,2.13-2.12V55.6A2.13,2.13,0,0,0,87.54,53.47Z"/><path class="cls-2" d="M112.72,53.47H99a2.13,2.13,0,0,0-2.14,2.13V69.31A2.13,2.13,0,0,0,99,71.43h13.74a2.12,2.12,0,0,0,2.13-2.12V55.6A2.13,2.13,0,0,0,112.72,53.47Z"/><path class="cls-2" d="M37.17,82.9H23.43A2.12,2.12,0,0,0,21.3,85V98.73a2.13,2.13,0,0,0,2.13,2.13H37.17a2.13,2.13,0,0,0,2.13-2.13V85A2.12,2.12,0,0,0,37.17,82.9Z"/><path class="cls-2" d="M62.35,82.9H48.61A2.12,2.12,0,0,0,46.48,85V98.73a2.13,2.13,0,0,0,2.13,2.13H62.35a2.13,2.13,0,0,0,2.14-2.13V85A2.13,2.13,0,0,0,62.35,82.9Z"/><rect class="cls-3" y="31.39" width="136" height="16.98"/><path class="cls-4" d="M133.94,16.13H118.48a2.13,2.13,0,0,0-2.13,2.13v6.82a4.2,4.2,0,0,1-8.4,0V18.26a2.13,2.13,0,0,0-2.13-2.13H30.33a2.13,2.13,0,0,0-2.13,2.13v6.82a4.2,4.2,0,0,1-8.4,0V18.26a2.13,2.13,0,0,0-2.13-2.13H2.21A2.13,2.13,0,0,0,.07,18.26v23a2.13,2.13,0,0,0,2.14,2.13H133.94a2.13,2.13,0,0,0,2.13-2.13v-23A2.13,2.13,0,0,0,133.94,16.13Z"/><path class="cls-5" d="M.07,35.61v5.67a2.13,2.13,0,0,0,2.14,2.13H133.94a2.13,2.13,0,0,0,2.13-2.13V35.61Z"/><path class="cls-6" d="M24,0a8.47,8.47,0,0,0-8.47,8.44V25.08a8.47,8.47,0,0,0,16.93,0V8.44A8.47,8.47,0,0,0,24,0Z"/><path class="cls-7" d="M24,0a8.34,8.34,0,0,0-3.95,1,8.44,8.44,0,0,1,4.52,7.46V25.08a8.46,8.46,0,0,1-4.52,7.46,8.46,8.46,0,0,0,12.41-7.46V8.44A8.47,8.47,0,0,0,24,0Z"/><path class="cls-6" d="M112.15,0a8.46,8.46,0,0,0-8.46,8.44V25.08a8.46,8.46,0,0,0,16.92,0V8.44A8.46,8.46,0,0,0,112.15,0Z"/><path class="cls-7" d="M112.15,0a8.37,8.37,0,0,0-4,1,8.43,8.43,0,0,1,4.52,7.46V25.08a8.45,8.45,0,0,1-4.51,7.46,8.45,8.45,0,0,0,12.4-7.46V8.44A8.46,8.46,0,0,0,112.15,0Z"/><path class="cls-4" d="M106.46,67.18a38.4,38.4,0,1,0,38.5,38.4A38.49,38.49,0,0,0,106.46,67.18Z"/><path class="cls-5" d="M106.46,67.18a38.61,38.61,0,0,0-4,.21,38.39,38.39,0,0,1,0,76.37,38.4,38.4,0,1,0,4-76.58Z"/><path class="cls-1" d="M106.46,76.12A29.46,29.46,0,1,0,136,105.58,29.53,29.53,0,0,0,106.46,76.12Z"/><path class="cls-3" d="M106.46,76.12a29.75,29.75,0,0,0-3.91.25,29.45,29.45,0,0,1,0,58.41,29.47,29.47,0,1,0,3.91-58.66Z"/><path class="cls-8" d="M106.39,103.44a2.13,2.13,0,0,1-2.13-2.13V85a2.14,2.14,0,0,1,4.27,0v16.29A2.13,2.13,0,0,1,106.39,103.44Z"/><path class="cls-8" d="M95.75,119.74a2.13,2.13,0,0,1-1.57-3.56l8-8.65a2.14,2.14,0,0,1,3-.12,2.12,2.12,0,0,1,.12,3l-8,8.65A2.14,2.14,0,0,1,95.75,119.74Z"/><path class="cls-6" d="M106.39,99.18a6.43,6.43,0,1,0,6.44,6.43A6.45,6.45,0,0,0,106.39,99.18Z"/></g></g></svg>