<svg xmlns="http://www.w3.org/2000/svg" viewBox="0 0 143 143"><defs><style>.cls-1{fill:#8eb355;}.cls-2{fill:#78ae93;}.cls-3{fill:#3b8962;}.cls-4{fill:#28404c;}</style></defs><title>icono6</title><g id="Capa_2" data-name="Capa 2"><g id="Capa_8" data-name="Capa 8"><path class="cls-1" d="M33,38.91,15.53,21.45a4.19,4.19,0,0,1,5.92-5.92L38.91,33A4.19,4.19,0,1,1,33,38.91Z"/><path class="cls-1" d="M15.53,127.47a4.18,4.18,0,0,1,0-5.92L33,104.09A4.19,4.19,0,0,1,38.91,110L21.45,127.47A4.18,4.18,0,0,1,15.53,127.47Z"/><path class="cls-1" d="M121.55,127.47,104.09,110a4.19,4.19,0,0,1,5.92-5.92l17.46,17.46a4.19,4.19,0,0,1-5.92,5.92Z"/><path class="cls-1" d="M104.09,38.91a4.18,4.18,0,0,1,0-5.92l17.46-17.46a4.19,4.19,0,0,1,5.92,5.92L110,38.91A4.18,4.18,0,0,1,104.09,38.91Z"/><path class="cls-1" d="M12.57,143a12.57,12.57,0,1,1,12.57-12.57A12.59,12.59,0,0,1,12.57,143Z"/><path class="cls-1" d="M130.43,143A12.57,12.57,0,1,1,143,130.43,12.59,12.59,0,0,1,130.43,143Z"/><path class="cls-1" d="M130.43,25.14A12.57,12.57,0,1,1,143,12.57,12.59,12.59,0,0,1,130.43,25.14Z"/><path class="cls-1" d="M12.57,25.14A12.57,12.57,0,0,1,12.57,0,12.83,12.83,0,0,1,25.14,12.85,12.35,12.35,0,0,1,12.57,25.14Z"/><path class="cls-2" d="M121.77,58.93h-5.94a45.43,45.43,0,0,0-4.12-9.87l4.23-4.22a4.21,4.21,0,0,0,0-5.93L104.09,27.06a4.21,4.21,0,0,0-5.93,0l-4.22,4.23a45.43,45.43,0,0,0-9.87-4.12V21.23A4.19,4.19,0,0,0,79.88,17H63.12a4.19,4.19,0,0,0-4.19,4.19v5.94a45.43,45.43,0,0,0-9.87,4.12l-4.22-4.23a4.21,4.21,0,0,0-5.93,0L27.06,38.91a4.21,4.21,0,0,0,0,5.93l4.23,4.22a45.43,45.43,0,0,0-4.12,9.87H21.23A4.19,4.19,0,0,0,17,63.12V79.88a4.19,4.19,0,0,0,4.19,4.19h5.94a45.43,45.43,0,0,0,4.12,9.87l-4.23,4.22a4.21,4.21,0,0,0,0,5.93l11.85,11.85a4.21,4.21,0,0,0,5.93,0l4.22-4.23a45.43,45.43,0,0,0,9.87,4.12v5.94A4.19,4.19,0,0,0,63.12,126H79.88a4.19,4.19,0,0,0,4.19-4.19v-5.94a45.43,45.43,0,0,0,9.87-4.12l4.22,4.23a4.21,4.21,0,0,0,5.93,0l11.85-11.85a4.21,4.21,0,0,0,0-5.93l-4.23-4.22a45.43,45.43,0,0,0,4.12-9.87h5.94A4.19,4.19,0,0,0,126,79.88V63.12a4.19,4.19,0,0,0-4.19-4.19ZM71.5,96.64A25.14,25.14,0,1,1,96.64,71.5,25.15,25.15,0,0,1,71.5,96.64Z"/><path class="cls-3" d="M84.07,121.77v-5.94a45.43,45.43,0,0,0,9.87-4.12l4.22,4.23a4.21,4.21,0,0,0,5.93,0l11.85-11.85a4.21,4.21,0,0,0,0-5.93l-4.23-4.22a45.43,45.43,0,0,0,4.12-9.87h5.94A4.19,4.19,0,0,0,126,79.88V63.12a4.19,4.19,0,0,0-4.19-4.19h-5.94a45.43,45.43,0,0,0-4.12-9.87l4.23-4.22a4.21,4.21,0,0,0,0-5.93L104.09,27.06a4.21,4.21,0,0,0-5.93,0l-4.22,4.23a45.43,45.43,0,0,0-9.87-4.12V21.23A4.19,4.19,0,0,0,79.88,17H71.5V46.36a25.14,25.14,0,0,1,0,50.28V126h8.38a4.19,4.19,0,0,0,4.19-4.19Z"/><path class="cls-3" d="M71.5,42.17A29.33,29.33,0,1,0,100.83,71.5,29.33,29.33,0,0,0,71.5,42.17Zm0,50.28a21,21,0,1,1,21-21A21,21,0,0,1,71.5,92.45Z"/><path class="cls-4" d="M100.83,71.5A29.33,29.33,0,0,0,71.5,42.17v8.38a21,21,0,0,1,0,41.9v8.38A29.33,29.33,0,0,0,100.83,71.5Z"/></g></g></svg>