<svg xmlns="http://www.w3.org/2000/svg" viewBox="0 0 138 138"><defs><style>.cls-1{fill:#28404c;}.cls-2{fill:#777d7d;}.cls-3{fill:#9dc65e;}.cls-4{fill:#fff;}.cls-5{fill:#dceac5;}.cls-6{fill:#ecf4e0;}.cls-7{fill:#7cb096;}.cls-8{fill:#3b8962;}</style></defs><title>icono5</title><g id="Capa_2" data-name="Capa 2"><g id="Capa_8" data-name="Capa 8"><path class="cls-1" d="M138,69a68.66,68.66,0,0,1-13.52,41,70,70,0,0,1-10.7,11.47,68.91,68.91,0,0,1-83.08,4.9A69.06,69.06,0,0,1,13.52,110a69,69,0,0,1,0-82.06,69.59,69.59,0,0,1,19.79-18A68.75,68.75,0,0,1,69,0h.27a68.69,68.69,0,0,1,35.42,9.93,69.59,69.59,0,0,1,19.79,18A68.66,68.66,0,0,1,138,69Z"/><path class="cls-2" d="M128.46,59.46a59.21,59.21,0,0,1-11.65,35.36,60,60,0,0,1-9.22,9.88,59.36,59.36,0,0,1-77.18,0,60,60,0,0,1-9.22-9.88A59.46,59.46,0,0,1,69,0h.23A59.1,59.1,0,0,1,99.75,8.56a59.5,59.5,0,0,1,28.71,50.9Z"/><path class="cls-3" d="M124.48,20.19V110a70,70,0,0,1-10.7,11.47,68.91,68.91,0,0,1-83.08,4.9A69.06,69.06,0,0,1,13.52,110V20.19A10.25,10.25,0,0,1,23.77,9.93h90.46A10.25,10.25,0,0,1,124.48,20.19Z"/><path class="cls-4" d="M113.78,39.49v82a68.91,68.91,0,0,1-83.08,4.9,70.56,70.56,0,0,1-6.48-4.9v-82A6.46,6.46,0,0,1,30.68,33h76.64A6.46,6.46,0,0,1,113.78,39.49Z"/><path class="cls-5" d="M96.46,12.69V30.83A6.14,6.14,0,0,1,90.32,37H47.68a6.14,6.14,0,0,1-6.14-6.14V12.69a6.14,6.14,0,0,1,6.14-6.14H58.41A11.83,11.83,0,0,1,69,0a11.27,11.27,0,0,1,2.11.19,11.78,11.78,0,0,1,7.77,5.14l.06.1a9.12,9.12,0,0,1,.47.79l.18.33H90.32A6.14,6.14,0,0,1,96.46,12.69Z"/><path class="cls-6" d="M96.46,12.69V30.83A6.14,6.14,0,0,1,90.32,37H51.9a6.14,6.14,0,0,1-6.14-6.14V12.69A6.14,6.14,0,0,1,51.9,6.55h6.51A11.83,11.83,0,0,1,69,0a11.27,11.27,0,0,1,2.11.19,11.78,11.78,0,0,1,7.77,5.14l.06.1c.18.29.34.56.47.79l.18.33H90.32A6.14,6.14,0,0,1,96.46,12.69Z"/><circle class="cls-3" cx="69" cy="9.65" r="4.08"/><path class="cls-5" d="M84.21,28H53.79a3,3,0,0,1-3-3h0a3,3,0,0,1,3-3H84.21a3,3,0,0,1,3,3h0A3,3,0,0,1,84.21,28Z"/><path class="cls-7" d="M51.26,71.33H33.51a2.81,2.81,0,0,1-2.81-2.82V50.77A2.81,2.81,0,0,1,33.51,48H51.26a2.81,2.81,0,0,1,2.81,2.82V68.51A2.81,2.81,0,0,1,51.26,71.33ZM36.33,65.7H48.44V53.59H36.33Z"/><path class="cls-8" d="M79.7,57H62a2.82,2.82,0,0,1,0-5.64H79.7a2.82,2.82,0,0,1,0,5.64Z"/><path class="cls-8" d="M101.67,68H62a2.82,2.82,0,1,1,0-5.63h39.71a2.82,2.82,0,1,1,0,5.63Z"/><path class="cls-7" d="M51.26,101.75H33.51a2.82,2.82,0,0,1-2.81-2.82V81.19a2.81,2.81,0,0,1,2.81-2.82H51.26a2.81,2.81,0,0,1,2.81,2.82V98.93A2.82,2.82,0,0,1,51.26,101.75ZM36.33,96.11H48.44V84H36.33Z"/><path class="cls-8" d="M79.7,87.38H62a2.82,2.82,0,1,1,0-5.63H79.7a2.82,2.82,0,1,1,0,5.63Z"/><path class="cls-8" d="M101.67,98.37H62a2.82,2.82,0,1,1,0-5.64h39.71a2.82,2.82,0,0,1,0,5.64Z"/><path class="cls-7" d="M51.26,108.79H33.51a2.81,2.81,0,0,0-2.81,2.81v14.8a68.69,68.69,0,0,0,10.48,5.76H51.26a2.81,2.81,0,0,0,2.81-2.81V111.6A2.81,2.81,0,0,0,51.26,108.79Zm-2.82,17.74H36.33V114.42H48.44Z"/><path class="cls-8" d="M79.7,117.8H62a2.82,2.82,0,1,1,0-5.63H79.7a2.82,2.82,0,1,1,0,5.63Z"/><path class="cls-8" d="M101.67,128.78H62a2.82,2.82,0,1,1,0-5.63h39.71a2.82,2.82,0,1,1,0,5.63Z"/><path class="cls-1" d="M42.24,99.21A2.84,2.84,0,0,1,39.9,98l-9-13.52a2.82,2.82,0,0,1,4.69-3.13l6.25,9.38,8-16.91a2.82,2.82,0,1,1,5.09,2.42L44.79,97.6a2.8,2.8,0,0,1-2.34,1.6Z"/></g></g></svg>